<svg id="Layer_1" data-name="Layer 1" xmlns="http://www.w3.org/2000/svg" viewBox="0 0 4517.25 1049"><defs><style>.cls-1{fill:#fff;}</style></defs><title>small-full-whiteoutline-roundel</title><path class="cls-1" d="M1185.43,704.91l120.44-30.59c8.59,84.11,68.34,121.39,140,121.39,72.18,0,111.36-38.23,111.36-86,0-140-326.91-93.19-326.91-313,0-119.48,97-186.39,210.78-186.39,83.15,0,159.15,36.32,205.5,118.52l-100.84,61.65c-23.42-45.88-63.56-72.16-109-72.16-47.79,0-85.06,29.15-85.06,72.16,0,127.13,326.9,84.12,326.9,308.27,0,127.6-105.63,204.55-234.67,204.55C1324.5,903.25,1206.93,837.77,1185.43,704.91Zm545.32-46.36c0-124.26,72.64-250.43,234.17-250.43,167.29,0,221.29,134.29,221.29,240.87,0,19.59-1.91,39.19-4.3,45.88H1854c10,62.61,44.46,104.67,119.49,104.67,43,0,81.24-13.39,114.71-50.67l80.29,70.26c-52.1,57.83-115.67,86-196,86C1808.16,905.16,1730.75,787.11,1730.75,658.55Zm340.75-47.79c0-10.52-.95-20.56-3.82-30.12-11.94-49.22-53-74.55-103.7-74.55-68.83,0-98.94,44.92-109.94,104.67Zm301.35,44L2209.4,418.15h141.94l98.93,157.24,98.94-157.24H2692.1L2527.7,654.73,2692.1,895.6H2549.21L2450.27,735,2351.34,895.6H2209.4Zm452.08,109V515.65H2748v-97.5h78.85V299.62l114.7-83.16V418.15H3061v97.5H2941.54V743.14c0,45.88,22.47,59.26,53.06,59.26,24.37,0,50.65-9.56,66.42-17.2V890.82c-17.68,6.69-52.09,14.34-87,14.34C2880.84,905.16,2824.93,850.68,2824.93,763.7ZM3556.34,606V895.6h-96.06L3453.11,832c-31.06,49.24-94.63,73.13-149.12,73.13-98,0-173.49-56.39-173.49-156.29,0-103.7,83.17-138.11,190.23-138.11h129.51c-2.39-70.73-23.42-100.85-99.41-100.85-55,0-91.76,32.5-112.31,67.39l-89.37-64.52c45.88-62.6,106.58-104.66,200.73-104.66C3479.87,408.12,3556.34,489.37,3556.34,606ZM3450.72,698.7v-3.83H3327.41c-53,0-77.42,27.72-77.42,57.83,0,31.54,25.33,54,77.42,54C3399.11,806.71,3443.55,755.09,3450.72,698.7ZM3661,418.15h116.61v55.44c38.24-46.84,93.2-65.47,140-65.47,125.22,0,174.45,100.84,174.45,200.73V895.6H3975.52V623.66c0-62.61-31.56-108-91.29-108-65.47,0-106.59,35.36-106.59,118.52V895.6H3661ZM4214.91,763.7V515.65H4138v-97.5h78.85V299.62l114.71-83.16V418.15H4451v97.5H4331.53V743.14c0,45.88,22.46,59.26,53.05,59.26,24.37,0,50.65-9.56,66.43-17.2V890.82c-17.69,6.69-52.1,14.34-87,14.34C4270.83,905.16,4214.91,850.68,4214.91,763.7ZM524.5,1049A524.63,524.63,0,0,1,320.34,41.22a524.63,524.63,0,0,1,408.32,966.56A521.28,521.28,0,0,1,524.5,1049Zm0-1024A499.64,499.64,0,0,0,330.07,984.75,499.63,499.63,0,0,0,718.92,64.25,496.38,496.38,0,0,0,524.5,25ZM848.65,400.64l-286-29.4V347.93A76.74,76.74,0,1,0,466,330.09l-57.12,85.27-44.26-74.62a2.83,2.83,0,0,0-3.87-1l-41.83,24.34a2.83,2.83,0,0,0-1,3.87l56.94,98.22L223,692.84l-7,9.41a2.83,2.83,0,0,0,.27,3.7C229.28,719,316.89,801.43,462.26,816.36l-3.63,37.88a2.84,2.84,0,0,0,2.82,3.11H586.79a2.84,2.84,0,0,0,2.82-3.11L586,816.72c145.9-14.68,233.84-97.4,247-110.51a2.83,2.83,0,0,0,.26-3.69l-42.33-56.8a2.84,2.84,0,0,0-.82-.73l-132.4-188.1,191-24.19a2.84,2.84,0,0,0,2.48-2.82V403.46A2.84,2.84,0,0,0,848.65,400.64ZM487.32,716.47H474.43a2.83,2.83,0,0,0-2.82,2.56l-1.43,14.81c-56.6-9.27-120.15-28.67-165.46-56.52l182.6-325.6Zm254.42-37.26c-45.36,27.11-107.93,46-163.65,55L576.63,719a2.83,2.83,0,0,0-2.82-2.56H562.69V468.91l62.86-8Z"/></svg>