<svg id="Layer_1" data-name="Layer 1" xmlns="http://www.w3.org/2000/svg" viewBox="0 0 4320.11 1049"><defs><style>.cls-1{fill:#fff;}</style></defs><title>large-full-whiteoutline-roundel</title><path class="cls-1" d="M1186.43,665.77l113.5-28.83c8.1,79.27,64.41,114.4,132,114.4,68,0,104.94-36,104.94-81.07,0-132-308.08-87.83-308.08-295,0-112.6,91.44-175.66,198.64-175.66,78.37,0,150,34.23,193.68,111.7l-95,58.1c-22.06-43.24-59.9-68-102.69-68-45,0-80.17,27.47-80.17,68,0,119.81,308.09,79.27,308.09,290.52,0,120.26-99.55,192.78-221.16,192.78C1317.5,852.69,1206.69,791,1186.43,665.77Zm513.93-43.69c0-117.11,68.46-236,220.69-236,157.66,0,208.55,126.56,208.55,227,0,18.46-1.8,36.94-4,43.24h-309c9.46,59,41.89,98.64,112.61,98.64,40.53,0,76.56-12.61,108.1-47.75l75.67,66.22c-49.1,54.5-109,81.07-184.68,81.07C1773.32,854.49,1700.36,743.24,1700.36,622.08Zm321.14-45c0-9.91-.9-19.37-3.6-28.38-11.26-46.39-50-70.27-97.74-70.27-64.86,0-93.24,42.34-103.6,98.65Zm284,41.44-154-223h133.77l93.24,148.19,93.24-148.19h134.67l-154.94,223,154.94,227H2471.71l-93.24-151.34-93.24,151.34H2151.46Zm426.06,102.69V487.4h-72.51V395.52h74.31V283.81l108.1-78.37V395.52h112.6V487.4h-112.6V701.8c0,43.24,21.17,55.85,50,55.85,23,0,47.74-9,62.6-16.21V841c-16.67,6.31-49.1,13.51-82,13.51C2784.25,854.49,2731.56,803.15,2731.56,721.17Zm689.31-148.64v273h-90.53l-6.76-59.91c-29.27,46.39-89.18,68.91-140.53,68.91-92.33,0-163.51-53.14-163.51-147.29,0-97.73,78.39-130.16,179.28-130.16h122.06c-2.26-66.66-22.08-95-93.69-95-51.79,0-86.48,30.62-105.84,63.51l-84.24-60.81c43.24-59,100.45-98.64,189.18-98.64C3348.8,386.06,3420.87,462.63,3420.87,572.53Zm-99.54,87.38v-3.6H3205.12c-50,0-73,26.13-73,54.5,0,29.72,23.86,50.9,73,50.9C3272.69,761.71,3314.57,713.06,3321.33,659.91Zm198.2-264.39h109.91v52.24c36-44.14,87.83-61.7,132-61.7,118,0,164.41,95,164.41,189.18V845.49h-109.9V589.19c0-59-29.74-101.79-86-101.79-61.7,0-100.44,33.33-100.44,111.7V845.49H3519.53Zm522,325.65V487.4H3969V395.52h74.32V283.81l108.1-78.37V395.52H4264V487.4h-112.6V701.8c0,43.24,21.17,55.85,50,55.85,23,0,47.73-9,62.6-16.21V841c-16.67,6.31-49.1,13.51-82,13.51C4094.23,854.49,4041.54,803.15,4041.54,721.17ZM523.5,1049A524.63,524.63,0,0,1,319.34,41.22a524.63,524.63,0,0,1,408.32,966.56A521.28,521.28,0,0,1,523.5,1049Zm0-1024A499.63,499.63,0,0,0,329.08,984.75,499.63,499.63,0,0,0,717.92,64.25,496.2,496.2,0,0,0,523.5,25ZM843.88,390.87l-100.51-5a3.38,3.38,0,0,1-3.16-3.37v-3.9a3.38,3.38,0,0,0-3.23-3.37L618.21,370.1a3.37,3.37,0,0,1-3.22-3.37V356.28a3.39,3.39,0,0,0-3.38-3.38h-29a3.38,3.38,0,0,0-3.37,3.38V467a3.37,3.37,0,0,0,3.37,3.37h29A3.38,3.38,0,0,0,615,467V455.78a3.36,3.36,0,0,1,3.22-3.37L737,447.28a3.38,3.38,0,0,0,3.23-3.38v-4.79a3.37,3.37,0,0,1,3.08-3.36L844,429.07a3.37,3.37,0,0,0,3.09-3.36V394.23A3.36,3.36,0,0,0,843.88,390.87ZM784.34,646.43l.37-.43L666.07,477.43l-.67-1.3-.18.1-6.44-9.15a2.81,2.81,0,0,0-2.41-1.19l-12.3.5a2.81,2.81,0,0,0-2.39,4.07l8.54,17c-6.27,2.2-39.86,13.59-74.14,18a2.35,2.35,0,0,0-2,2.59l1.73,14.87A2.35,2.35,0,0,0,578.4,525a394.29,394.29,0,0,0,80.8-19.62l42.13,84-3.59-6.27S632,612.48,585.89,620a2.34,2.34,0,0,0-2,2.56l1.74,16.14a2.33,2.33,0,0,0,2.86,2c14.5-3.42,84.25-21.37,118.49-40.07l37.41,74.55c-42.29,29.11-91.27,48.95-149.93,57.49a2.8,2.8,0,0,0-2.39,3.1L601,811.49a2.81,2.81,0,0,0,3.13,2.47c13.11-1.62,24-3.72,36.16-6.28L636.1,759.9l14.71,45.41q17.72-4.23,34.13-9.81l-5.84-23.16,10.51,21.55c10.16-3.6,20-7.6,29.47-12l-14.07-46,23.63,41.49q15.6-7.74,30.16-16.85l-11.39-20.69,15.15,18.3q13.17-8.43,25.62-17.95l-24.82-42.27,33,35.82q6.47-5.19,12.76-10.66l14.7-12.78a2.81,2.81,0,0,0,.49-3.67ZM455.1,641.2a2.34,2.34,0,0,0,2.81-2l1.76-16.3a2.34,2.34,0,0,0-1.85-2.54c-48.23-9.94-91.7-27.11-112-36.88l45.21-79c29.67,9.58,62.95,17.25,72.08,19.29a2.32,2.32,0,0,0,2.81-1.91L468.3,507a2.33,2.33,0,0,0-1.89-2.66,461.69,461.69,0,0,1-65.34-17.42l62-108.3a2.82,2.82,0,0,0-.87-3.73l-10.35-7a2.82,2.82,0,0,0-3.87.72l-45.65,65.2-49.93-86.08a2.82,2.82,0,0,0-3.84-1l-24.31,14a2.79,2.79,0,0,0-1,3.83l57.65,99.86L354.61,502,326.5,542.1,252,648.5l-38.32,51.41a2.81,2.81,0,0,0,.35,3.74l14.62,13.54q6.42,5.94,13.35,11.6l33.45-36.29L250.3,735.33Q262.48,744.62,276,753l15.4-18.6-11.54,21q14.52,8.79,30.35,16.5l23.59-41.42-14,45.93c9.52,4.33,19.36,8.35,29.44,12.05l10.5-21.52-5.85,23.19,2.14.76c12,4.16,21.78,7.86,31.34,11.08l15.37-47.48-4.5,50.94a260.78,260.78,0,0,0,37.35,7.65,2.82,2.82,0,0,0,3.19-2.45l8.91-75.69a2.8,2.8,0,0,0-2.35-3.09c-58.55-9.3-108.9-29.91-150.13-59.84L336,600.71C356.76,610.88,403.88,630.49,455.1,641.2Zm117,97a2.81,2.81,0,0,0-2.79-2.5H558.25v-387h-1.82a78.76,78.76,0,1,0-71,0H483.6v387H470.8a2.81,2.81,0,0,0-2.79,2.5L455.25,851.37a2.8,2.8,0,0,0,2.79,3.12h124a2.81,2.81,0,0,0,2.79-3.12ZM471.59,322.9l74.33-106.16,24.35,17L495.94,340ZM527,823.63l-6.05-49.8-6.85,49.8H485.84l6.32-60.32h56L556,823.63Z"/></svg>