<svg id="Layer_1" data-name="Layer 1" xmlns="http://www.w3.org/2000/svg" viewBox="0 0 1000 1000"><defs><style>.cls-1{fill:#3d4897;}</style></defs><title>small-logo-blue</title><path class="cls-1" d="M895.51,336.71,536.88,299.84V270.61a96.25,96.25,0,1,0-121.32-22.37L343.92,355.17l-55.51-93.58a3.55,3.55,0,0,0-4.84-1.26l-52.46,30.53a3.55,3.55,0,0,0-1.29,4.86l71.42,123.17L110.81,703.17,102,715a3.53,3.53,0,0,0,.33,4.63C118.74,736,228.62,839.36,410.93,858.08l-4.56,47.5a3.56,3.56,0,0,0,3.54,3.9h157.2a3.56,3.56,0,0,0,3.54-3.9l-4.52-47.05c183-18.41,293.27-122.15,309.7-138.6a3.53,3.53,0,0,0,.33-4.63l-53.08-71.22a3.58,3.58,0,0,0-1-.92L656,407.25l239.59-30.33a3.56,3.56,0,0,0,3.11-3.53V340.25A3.56,3.56,0,0,0,895.51,336.71ZM442.35,732.8H426.19a3.56,3.56,0,0,0-3.54,3.21l-1.78,18.58c-71-11.63-150.69-36-207.52-70.88l229-408.35Zm319.08-46.72c-56.88,34-135.36,57.68-205.23,69L554.37,736a3.56,3.56,0,0,0-3.54-3.21h-14V422.34l78.83-10Z"/></svg>