<svg id="Layer_1" data-name="Layer 1" xmlns="http://www.w3.org/2000/svg" viewBox="0 0 1049 1049"><defs><style>.cls-1{fill:#3d4897;}</style></defs><title>small-logo-outline-roundel</title><path class="cls-1" d="M524.5,1049A524.63,524.63,0,0,1,320.34,41.22a524.63,524.63,0,0,1,408.32,966.56A521.28,521.28,0,0,1,524.5,1049Zm0-1024A499.63,499.63,0,0,0,330.08,984.75,499.63,499.63,0,0,0,718.92,64.25,496.38,496.38,0,0,0,524.5,25ZM848.65,400.64l-286-29.4V347.93A76.74,76.74,0,1,0,466,330.09l-57.12,85.27-44.26-74.62a2.83,2.83,0,0,0-3.87-1l-41.83,24.34a2.83,2.83,0,0,0-1,3.87l56.95,98.22L223,692.84l-7,9.41a2.83,2.83,0,0,0,.27,3.7C229.28,719,316.89,801.43,462.26,816.36l-3.63,37.88a2.84,2.84,0,0,0,2.82,3.11H586.79a2.84,2.84,0,0,0,2.82-3.11L586,816.72c145.9-14.68,233.84-97.4,247-110.51a2.83,2.83,0,0,0,.26-3.69l-42.33-56.8a2.84,2.84,0,0,0-.82-.73l-132.4-188.1,191-24.19a2.84,2.84,0,0,0,2.48-2.82V403.46A2.84,2.84,0,0,0,848.65,400.64ZM487.32,716.47H474.43a2.83,2.83,0,0,0-2.82,2.56l-1.43,14.81c-56.6-9.27-120.15-28.67-165.46-56.52l182.6-325.6Zm254.42-37.26c-45.36,27.11-107.93,46-163.65,55L576.63,719a2.83,2.83,0,0,0-2.82-2.56H562.69V468.91l62.86-8Z"/></svg>