<svg id="Layer_1" data-name="Layer 1" xmlns="http://www.w3.org/2000/svg" viewBox="0 0 1049 1049"><defs><style>.cls-1{fill:#3d4897;}</style></defs><title>large-logo-outline-roundel</title><path class="cls-1" d="M524.5,1049A524.63,524.63,0,0,1,320.34,41.22a524.63,524.63,0,0,1,408.32,966.56A521.28,521.28,0,0,1,524.5,1049Zm0-1024A499.63,499.63,0,0,0,330.08,984.75,499.63,499.63,0,0,0,718.92,64.25,496.2,496.2,0,0,0,524.5,25ZM844.88,390.87l-100.51-5a3.38,3.38,0,0,1-3.16-3.37v-3.9a3.38,3.38,0,0,0-3.23-3.37L619.21,370.1a3.37,3.37,0,0,1-3.22-3.37V356.28a3.39,3.39,0,0,0-3.38-3.38h-29a3.38,3.38,0,0,0-3.37,3.38V467a3.37,3.37,0,0,0,3.37,3.37h29A3.38,3.38,0,0,0,616,467V455.78a3.36,3.36,0,0,1,3.22-3.37L738,447.28a3.38,3.38,0,0,0,3.23-3.38v-4.79a3.37,3.37,0,0,1,3.08-3.36L845,429.07a3.37,3.37,0,0,0,3.09-3.36V394.23A3.36,3.36,0,0,0,844.88,390.87ZM785.34,646.43l.37-.43L667.06,477.43l-.66-1.3-.19.1-6.43-9.15a2.81,2.81,0,0,0-2.41-1.19l-12.3.5a2.81,2.81,0,0,0-2.39,4.07l8.54,17c-6.27,2.2-39.86,13.59-74.14,18a2.35,2.35,0,0,0-2,2.59l1.73,14.87a2.34,2.34,0,0,0,2.61,2.05,394.18,394.18,0,0,0,80.81-19.62l42.13,84-3.59-6.27S633,612.48,586.89,620a2.33,2.33,0,0,0-2,2.56l1.74,16.14a2.33,2.33,0,0,0,2.86,2c14.5-3.42,84.25-21.37,118.49-40.07l37.41,74.55c-42.29,29.11-91.27,48.95-149.93,57.49a2.8,2.8,0,0,0-2.39,3.1L602,811.49a2.81,2.81,0,0,0,3.13,2.47c13.11-1.62,24-3.72,36.16-6.28L637.1,759.9l14.7,45.41q17.73-4.23,34.14-9.81l-5.84-23.16,10.51,21.55c10.16-3.6,20-7.6,29.47-12l-14.07-46,23.63,41.49q15.6-7.74,30.16-16.85l-11.39-20.69,15.15,18.3q13.17-8.43,25.62-17.95l-24.82-42.27,33,35.82q6.45-5.19,12.76-10.66l14.7-12.78a2.81,2.81,0,0,0,.49-3.67ZM456.1,641.2a2.34,2.34,0,0,0,2.81-2l1.76-16.3a2.34,2.34,0,0,0-1.85-2.54c-48.23-9.94-91.71-27.11-112-36.88l45.21-79c29.67,9.58,62.95,17.25,72.08,19.29a2.33,2.33,0,0,0,2.81-1.91L469.3,507a2.33,2.33,0,0,0-1.89-2.66,461.69,461.69,0,0,1-65.34-17.42l62-108.3a2.82,2.82,0,0,0-.87-3.73l-10.35-7a2.82,2.82,0,0,0-3.87.72l-45.65,65.2-49.93-86.08a2.82,2.82,0,0,0-3.84-1l-24.31,14a2.79,2.79,0,0,0-1,3.83l57.65,99.86L355.61,502,327.5,542.1,253,648.5l-38.32,51.41a2.8,2.8,0,0,0,.35,3.74l14.62,13.54q6.42,5.94,13.34,11.6l33.46-36.29-25.15,42.83q12.2,9.28,25.7,17.69l15.4-18.6-11.55,21q14.54,8.79,30.35,16.5l23.6-41.42-14,45.93c9.52,4.33,19.36,8.35,29.44,12.05l10.5-21.52-5.85,23.19,2.14.76c12,4.16,21.78,7.86,31.34,11.08l15.37-47.48-4.5,50.94a260.78,260.78,0,0,0,37.35,7.65,2.82,2.82,0,0,0,3.19-2.45l8.91-75.69a2.8,2.8,0,0,0-2.35-3.09c-58.55-9.3-108.9-29.91-150.13-59.84L337,600.71C357.76,610.88,404.88,630.49,456.1,641.2Zm117,97a2.82,2.82,0,0,0-2.79-2.5H559.25v-387h-1.82a78.76,78.76,0,1,0-71,0H484.6v387H471.8a2.81,2.81,0,0,0-2.79,2.5L456.25,851.37a2.8,2.8,0,0,0,2.79,3.12h124a2.81,2.81,0,0,0,2.79-3.12ZM472.59,322.9l74.32-106.16,24.36,17L496.94,340ZM528,823.63l-6.05-49.8-6.85,49.8H486.84l6.32-60.32h56L557,823.63Z"/></svg>