<svg id="Layer_1" data-name="Layer 1" xmlns="http://www.w3.org/2000/svg" viewBox="0 0 4313.86 1024"><defs><style>.cls-1{fill:#fff;}</style></defs><title>large-full-white-roundel</title><path class="cls-1" d="M1174.93,653.27l113.5-28.83c8.1,79.27,64.41,114.4,132,114.4,68,0,104.94-36,104.94-81.07,0-132-308.08-87.83-308.08-295,0-112.6,91.44-175.66,198.64-175.66,78.37,0,150,34.23,193.68,111.7l-95,58.1c-22.06-43.24-59.9-68-102.69-68-45,0-80.17,27.47-80.17,68,0,119.81,308.09,79.27,308.09,290.52,0,120.26-99.55,192.78-221.16,192.78C1306,840.19,1195.19,778.48,1174.93,653.27Zm513.93-43.69c0-117.11,68.46-236,220.69-236,157.66,0,208.55,126.56,208.55,227,0,18.46-1.8,36.94-4,43.24h-309c9.46,59,41.89,98.64,112.61,98.64,40.53,0,76.56-12.61,108.1-47.75l75.67,66.22c-49.1,54.5-109,81.07-184.68,81.07C1761.82,842,1688.86,730.74,1688.86,609.58Zm321.14-45c0-9.91-.9-19.37-3.6-28.38-11.26-46.39-50-70.27-97.74-70.27-64.86,0-93.24,42.34-103.6,98.65ZM2294,606,2140,383h133.77L2367,531.21,2460.21,383h134.67L2439.94,606l154.94,227H2460.21L2367,681.65,2273.73,833H2140Zm426.06,102.69V474.9h-72.51V383h74.31V271.31L2830,192.94V383h112.6V474.9H2830V689.3c0,43.24,21.17,55.85,50,55.85,23,0,47.74-9,62.6-16.21v99.54c-16.67,6.31-49.1,13.51-82,13.51C2772.75,842,2720.06,790.65,2720.06,708.67ZM3409.37,560V833h-90.53l-6.76-59.91C3282.81,819.47,3222.9,842,3171.55,842,3079.22,842,3008,788.85,3008,694.7c0-97.73,78.39-130.16,179.28-130.16h122.06c-2.26-66.66-22.08-95-93.69-95-51.79,0-86.48,30.62-105.84,63.51l-84.24-60.81c43.24-59,100.45-98.64,189.18-98.64C3337.3,373.56,3409.37,450.13,3409.37,560Zm-99.54,87.38v-3.6H3193.62c-50,0-73,26.13-73,54.5,0,29.72,23.86,50.9,73,50.9C3261.19,749.21,3303.07,700.56,3309.83,647.41ZM3508,383h109.91v52.24c36-44.14,87.83-61.7,132-61.7,118,0,164.41,95,164.41,189.18V833h-109.9V576.69c0-59-29.74-101.79-86-101.79-61.7,0-100.44,33.33-100.44,111.7V833H3508Zm522,325.65V474.9h-72.52V383h74.32V271.31l108.1-78.37V383h112.6V474.9h-112.6V689.3c0,43.24,21.17,55.85,50,55.85,23,0,47.73-9,62.6-16.21v99.54c-16.67,6.31-49.1,13.51-82,13.51C4082.73,842,4030,790.65,4030,708.67ZM558.77,221.29l-24.35-17L460.09,310.4l24.35,17.05ZM480.66,750.8l-6.32,60.33h28.24l6.85-49.8,6.05,49.8h29l-7.82-60.33ZM512,0C229.23,0,0,229.23,0,512s229.23,512,512,512,512-229.23,512-512S794.77,0,512,0ZM433.8,719.34a2.8,2.8,0,0,1,2.35,3.09l-8.91,75.69a2.82,2.82,0,0,1-3.19,2.45,260.78,260.78,0,0,1-37.35-7.65L391.2,742l-15.37,47.48c-9.56-3.22-19.37-6.92-31.34-11.08l-2.14-.76,5.85-23.19L337.7,776c-10.08-3.7-19.92-7.72-29.44-12.05l14-45.93L298.7,759.39q-15.81-7.7-30.36-16.5l11.55-21-15.4,18.6q-13.49-8.4-25.69-17.69L263.94,680l-33.45,36.29q-6.93-5.67-13.35-11.6l-14.62-13.54a2.81,2.81,0,0,1-.35-3.74L240.49,636,315,529.6l28.11-40.13L369.34,452l-57.65-99.86a2.79,2.79,0,0,1,1-3.83l24.31-14a2.82,2.82,0,0,1,3.84,1l49.93,86.08,45.65-65.2a2.82,2.82,0,0,1,3.87-.72l10.35,7a2.82,2.82,0,0,1,.87,3.73l-62,108.3a461.69,461.69,0,0,0,65.34,17.42,2.33,2.33,0,0,1,1.89,2.66l-2.35,14.79a2.32,2.32,0,0,1-2.81,1.91c-9.13-2-42.41-9.71-72.08-19.29l-45.21,79c20.27,9.77,63.74,26.94,112,36.88a2.34,2.34,0,0,1,1.85,2.54l-1.76,16.3a2.34,2.34,0,0,1-2.81,2c-51.22-10.71-98.34-30.32-119.14-40.49L283.67,659.5C324.9,689.43,375.25,710,433.8,719.34ZM570.57,842h-124a2.8,2.8,0,0,1-2.79-3.12l12.76-113.21a2.81,2.81,0,0,1,2.79-2.5h12.8v-387h1.83a78.76,78.76,0,1,1,71,0h1.82v387h11.06a2.81,2.81,0,0,1,2.79,2.5l12.76,113.21A2.81,2.81,0,0,1,570.57,842ZM812.35,697.8l-14.7,12.78q-6.3,5.48-12.76,10.66l-33-35.82,24.82,42.27q-12.46,9.52-25.62,17.95l-15.15-18.3L747.3,748q-14.58,9.11-30.16,16.85l-23.63-41.49,14.07,46c-9.51,4.36-19.31,8.36-29.47,12L667.6,759.84,673.44,783q-16.44,5.58-34.14,9.81L624.6,747.4l4.22,47.78c-12.12,2.56-23.05,4.66-36.16,6.28a2.81,2.81,0,0,1-3.13-2.47l-8.92-75.69a2.8,2.8,0,0,1,2.39-3.1c58.66-8.54,107.64-28.38,149.93-57.5l-37.41-74.54c-34.24,18.7-104,36.65-118.49,40.07a2.33,2.33,0,0,1-2.86-2l-1.74-16.14a2.34,2.34,0,0,1,2-2.56c46.09-7.53,111.85-37,111.85-37l3.59,6.27-42.13-84a394.18,394.18,0,0,1-80.81,19.62,2.34,2.34,0,0,1-2.61-2.05l-1.73-14.87a2.35,2.35,0,0,1,2-2.59c34.28-4.4,67.87-15.79,74.14-18l-8.54-17a2.81,2.81,0,0,1,2.39-4.07l12.3-.5a2.81,2.81,0,0,1,2.41,1.19l6.44,9.15.18-.1.66,1.3L773.21,633.5l-.37.43,40,60.2A2.81,2.81,0,0,1,812.35,697.8Zm23.19-284.59a3.37,3.37,0,0,1-3.09,3.36l-100.66,6.68a3.37,3.37,0,0,0-3.08,3.36v4.79a3.38,3.38,0,0,1-3.23,3.38l-118.77,5.13a3.36,3.36,0,0,0-3.22,3.37v11.19a3.38,3.38,0,0,1-3.38,3.37h-29a3.37,3.37,0,0,1-3.37-3.37V343.78a3.37,3.37,0,0,1,3.37-3.38h29a3.38,3.38,0,0,1,3.38,3.38v10.45a3.37,3.37,0,0,0,3.22,3.37l118.77,5.13a3.38,3.38,0,0,1,3.23,3.37V370a3.38,3.38,0,0,0,3.16,3.37l100.51,5a3.36,3.36,0,0,1,3.16,3.36Z"/></svg>