<svg id="Layer_1" data-name="Layer 1" xmlns="http://www.w3.org/2000/svg" viewBox="0 0 4587.72 865.91"><defs><style>.cls-1{fill:#fff;}</style></defs><title>large-full-white</title><path class="cls-1" d="M1027.4,599.28l131.31-33.34c9.37,91.7,74.51,132.35,152.67,132.35,78.68,0,121.4-41.69,121.4-93.79,0-152.67-356.41-101.61-356.41-341.3,0-130.26,105.78-203.21,229.8-203.21,90.66,0,173.52,39.6,224,129.22l-110,67.22c-25.52-50-69.29-78.68-118.8-78.68-52.1,0-92.74,31.78-92.74,78.68,0,138.6,356.41,91.7,356.41,336.09,0,139.11-115.16,223-255.85,223C1179,815.53,1050.85,744.14,1027.4,599.28Zm594.54-50.53c0-135.48,79.2-273,255.31-273,182.38,0,241.26,146.41,241.26,262.62,0,21.35-2.09,42.72-4.69,50H1756.36c11,68.25,48.47,114.11,130.28,114.11,46.89,0,88.57-14.59,125.06-55.24l87.53,76.6c-56.8,63-126.1,93.8-213.64,93.8C1706.34,817.62,1621.94,688.91,1621.94,548.75Zm371.51-52.11c0-11.46-1-22.41-4.16-32.83-13-53.67-57.85-81.29-113.07-81.29-75,0-107.87,49-119.86,114.12ZM2322,544.58,2143.79,286.65h154.75l107.87,171.43,107.86-171.43h155.8L2490.82,544.58l179.25,262.61h-155.8L2406.41,632.12,2298.54,807.19H2143.79Zm492.88,118.8V392.94H2731V286.65h86V157.42L2942,66.76V286.65h130.26V392.94H2942V641c0,50,24.49,64.61,57.84,64.61,26.57,0,55.22-10.42,72.42-18.76V802c-19.28,7.3-56.8,15.64-94.83,15.64C2875.84,817.62,2814.88,758.21,2814.88,663.38ZM3612.3,491.43V807.19H3507.58l-7.82-69.3c-33.87,53.67-103.17,79.73-162.58,79.73-106.81,0-189.15-61.49-189.15-170.4,0-113.06,90.68-150.58,207.4-150.58h141.2c-2.61-77.12-25.54-109.95-108.38-109.95-59.92,0-100.05,35.43-122.45,73.48l-97.44-70.35c50-68.26,116.2-114.11,218.85-114.11C3528.93,275.71,3612.3,364.29,3612.3,491.43ZM3497.16,592.52v-4.17H3362.71c-57.83,0-84.4,30.22-84.4,63,0,34.39,27.61,58.89,84.4,58.89C3440.88,710.28,3489.33,654,3497.16,592.52Zm229.28-305.87h127.14v60.44c41.69-51.06,101.62-71.38,152.68-71.38,136.52,0,190.19,109.94,190.19,218.85V807.19H4069.31V510.7c0-68.25-34.4-117.76-99.52-117.76-71.39,0-116.21,38.56-116.21,129.23v285H3726.44Zm603.88,376.73V392.94h-83.89V286.65h86V157.42l125.06-90.66V286.65h130.26V392.94H4457.46V641c0,50,24.49,64.61,57.84,64.61,26.57,0,55.22-10.42,72.42-18.76V802c-19.28,7.3-56.8,15.64-94.83,15.64C4391.28,817.62,4330.32,758.21,4330.32,663.38ZM835.37,252.61,702.25,246a4.47,4.47,0,0,1-4.18-4.46v-5.16a4.48,4.48,0,0,0-4.28-4.47L536.5,225.11a4.47,4.47,0,0,1-4.28-4.47V206.8a4.47,4.47,0,0,0-4.47-4.47H489.31a4.47,4.47,0,0,0-4.47,4.47V353.4a4.47,4.47,0,0,0,4.47,4.46h38.44a4.47,4.47,0,0,0,4.47-4.46V338.58a4.48,4.48,0,0,1,4.28-4.47l157.29-6.79a4.48,4.48,0,0,0,4.28-4.47v-6.34a4.46,4.46,0,0,1,4.08-4.45l133.31-8.85a4.47,4.47,0,0,0,4.09-4.45V257.07A4.47,4.47,0,0,0,835.37,252.61ZM756.51,591.07l.49-.57L599.87,367.26l-.87-1.73-.25.13-8.53-12.12A3.73,3.73,0,0,0,587,352l-16.28.66a3.73,3.73,0,0,0-3.18,5.39l11.32,22.54c-8.31,2.92-52.79,18-98.19,23.83a3.11,3.11,0,0,0-2.69,3.43l2.3,19.69a3.09,3.09,0,0,0,3.45,2.72c12.15-1.53,58.22-8.14,107-26l55.8,111.18-4.75-8.3s-87.08,39-148.13,49a3.09,3.09,0,0,0-2.6,3.39l2.31,21.36a3.1,3.1,0,0,0,3.79,2.69c19.2-4.54,111.57-28.3,156.92-53.08l49.55,98.73c-56,38.56-120.88,64.84-198.57,76.14a3.72,3.72,0,0,0-3.16,4.11l11.81,100.25a3.73,3.73,0,0,0,4.15,3.26c17.35-2.14,31.83-4.92,47.88-8.31l-5.58-63.29,19.47,60.15q23.46-5.61,45.21-13l-7.74-30.66,13.93,28.53q20.18-7.15,39-15.84l-18.63-61,31.3,54.94q20.65-10.25,39.94-22.31l-15.09-27.4L727.67,739q17.43-11.17,33.92-23.77l-32.86-56,43.74,47.44q8.55-6.88,16.9-14.13l19.46-16.92a3.72,3.72,0,0,0,.66-4.86Zm-436-6.92a3.12,3.12,0,0,0,3.72-2.71l2.33-21.58a3.09,3.09,0,0,0-2.46-3.36c-63.86-13.18-121.44-35.91-148.28-48.85L235.67,403C275,415.7,319,425.85,331.12,428.56a3.09,3.09,0,0,0,3.73-2.54L338,406.44a3.09,3.09,0,0,0-2.5-3.52,611.58,611.58,0,0,1-86.54-23.08L331,236.42a3.72,3.72,0,0,0-1.15-4.94l-13.71-9.22a3.72,3.72,0,0,0-5.12,1l-60.46,86.34-66.13-114a3.73,3.73,0,0,0-5.08-1.35l-32.2,18.59a3.72,3.72,0,0,0-1.36,5.08l76.35,132.26-34.74,49.61-37.23,53.16L51.48,593.82.74,661.9a3.72,3.72,0,0,0,.45,5l19.38,17.94q8.47,7.86,17.66,15.35l44.31-48-33.3,56.72q16.13,12.29,34,23.43l20.39-24.64L88.37,735.38q19.23,11.64,40.2,21.85l31.24-54.86L141.23,763.2q18.93,8.61,39,15.95l13.9-28.5-7.75,30.72,2.84,1c15.85,5.52,28.85,10.41,41.5,14.68l20.36-62.88-6,67.47c13.94,4.14,30.79,7.52,49.46,10.13a3.73,3.73,0,0,0,4.23-3.25l11.81-100.24a3.71,3.71,0,0,0-3.12-4.09C230,691.87,163.28,664.57,108.67,624.94l54-94.41C190.23,544,252.65,570,320.48,584.15Zm154.94,128.4a3.71,3.71,0,0,0-3.69-3.3H457.08V196.7h-2.41a104.31,104.31,0,1,0-94,0h-2.41V709.25h-17a3.72,3.72,0,0,0-3.7,3.3l-16.9,149.94a3.72,3.72,0,0,0,3.7,4.14H488.63a3.72,3.72,0,0,0,3.69-4.14ZM342.31,162.6,440.75,22,473,44.59,374.56,185.18Zm73.36,663.14-8-66-9.06,66h-37.4l8.37-79.88h74.2l10.36,79.88Z"/></svg>