<svg id="Layer_1" data-name="Layer 1" xmlns="http://www.w3.org/2000/svg" viewBox="0 0 4289.38 1049"><defs><style>.cls-1{fill:#fff;}</style></defs><title>medium-full-whiteoutline-roundel</title><path class="cls-1" d="M1185.43,673.22l112.86-28.67c8.06,78.83,64,113.76,131.23,113.76,67.63,0,104.35-35.83,104.35-80.61,0-131.23-306.35-87.33-306.35-293.36,0-112,90.92-174.67,197.52-174.67,77.93,0,149.14,34,192.58,111.08l-94.5,57.77c-21.94-43-59.57-67.63-102.12-67.63-44.79,0-79.71,27.32-79.71,67.63,0,119.13,306.34,78.82,306.34,288.88,0,119.58-99,191.69-219.91,191.69C1315.76,859.09,1205.58,797.73,1185.43,673.22Zm511-43.44c0-116.45,68.07-234.69,219.45-234.69,156.76,0,207.37,125.85,207.37,225.73,0,18.36-1.8,36.73-4,43H1812c9.41,58.66,41.66,98.08,112,98.08,40.3,0,76.13-12.54,107.49-47.48l75.24,65.84c-48.82,54.19-108.39,80.62-183.64,80.62C1769,860.88,1696.46,750.25,1696.46,629.78ZM2015.79,585c0-9.85-.9-19.26-3.59-28.22C2001,510.64,1962.49,486.9,1915,486.9c-64.49,0-92.71,42.1-103,98.09Zm282.39,41.21L2145,404.49h133l92.72,147.36,92.71-147.36h133.91L2443.29,626.2l154.07,225.72H2463.45l-92.71-150.48L2278,851.92H2145Zm423.65,102.11V495.86h-72.1V404.49h73.9V293.42l107.49-77.93v189h112v91.37h-112V709.05c0,43,21.05,55.53,49.71,55.53,22.84,0,47.47-9,62.25-16.12v99c-16.57,6.27-48.82,13.43-81.51,13.43C2774.23,860.88,2721.83,809.82,2721.83,728.31Zm685.42-147.8V851.92h-90l-6.73-59.57c-29.1,46.14-88.68,68.53-139.73,68.53-91.81,0-162.59-52.85-162.59-146.46,0-97.18,77.94-129.43,178.27-129.43h121.37c-2.25-66.28-22-94.5-93.16-94.5-51.5,0-86,30.45-105.25,63.15l-83.76-60.47c43-58.66,99.89-98.08,188.11-98.08C3335.59,395.09,3407.25,471.23,3407.25,580.51Zm-99,86.89v-3.58H3192.72c-49.71,0-72.55,26-72.55,54.19,0,29.56,23.73,50.61,72.55,50.61C3259.91,768.62,3301.56,720.25,3308.28,667.4Zm197.08-262.91h109.28v52c35.83-43.89,87.34-61.36,131.23-61.36,117.35,0,163.48,94.5,163.48,188.11V851.92H3800.07V597.08c0-58.67-29.57-101.22-85.55-101.22-61.35,0-99.88,33.14-99.88,111.07v245H3505.36Zm519,323.82V495.86h-72.1V404.49h73.9V293.42l107.49-77.93v189h112v91.37h-112V709.05c0,43,21.05,55.53,49.71,55.53,22.84,0,47.47-9,62.25-16.12v99c-16.57,6.27-48.82,13.43-81.51,13.43C4076.81,860.88,4024.41,809.82,4024.41,728.31ZM524.5,1049A524.63,524.63,0,0,1,320.34,41.22a524.63,524.63,0,0,1,408.32,966.56A521.28,521.28,0,0,1,524.5,1049Zm0-1024A499.63,499.63,0,0,0,330.08,984.75,499.63,499.63,0,0,0,718.92,64.25,496.38,496.38,0,0,0,524.5,25ZM848.15,401.83l-100.52-5a3.38,3.38,0,0,1-3.15-3.37v-3.89a3.39,3.39,0,0,0-3.23-3.38l-118.77-5.13a3.36,3.36,0,0,1-3.23-3.37V367.24a3.37,3.37,0,0,0-3.37-3.37h-29a3.37,3.37,0,0,0-3.38,3.37V477.93a3.37,3.37,0,0,0,3.38,3.37h29a3.37,3.37,0,0,0,3.37-3.37V466.74a3.38,3.38,0,0,1,1.37-2.71L681,567.1A377.64,377.64,0,0,1,576.91,594q-7,.78-14.11,1.3V352.52A76.74,76.74,0,1,0,487.42,354V594q-16.86-1.77-33.86-4.85a477.46,477.46,0,0,1-89.09-25.41L466.43,382a2.83,2.83,0,0,0-.91-3.75l-10.59-7a2.83,2.83,0,0,0-3.88.73l-50,71.29L352,358a2.83,2.83,0,0,0-3.88-1l-24.74,14.39a2.83,2.83,0,0,0-1,3.87l57.18,98.62L229.12,688.24l-13.51,18.13a1.89,1.89,0,0,0,.23,2.52l15.39,14.25c7.77,7.18,19.67,14.08,29,20.66a1.89,1.89,0,0,0,2.72-.6l21.71-37.13a1.89,1.89,0,0,1,2.7-.6l18.81,12.84a1.89,1.89,0,0,1,.59,2.47l-21,38.45a1.91,1.91,0,0,0,.68,2.53c23.47,14.45,45.1,25.93,73.43,35.78h0a1.89,1.89,0,0,0,2.42-1.18L376.74,753a1.91,1.91,0,0,1,2.36-1.21l21.13,6.48a1.9,1.9,0,0,1,1.25,2.39l-14.24,44.68a1.91,1.91,0,0,0,1.19,2.37,246.19,246.19,0,0,0,51,12.39,1.89,1.89,0,0,0,2.14-1.65l9.22-78.28a1.88,1.88,0,0,0-1.59-2.08c-58.76-9.2-107.7-29.67-149.2-59.41l54.38-97A495.87,495.87,0,0,0,449.2,609q19.17,3.51,38.22,5.43V740.89H474.49a2.83,2.83,0,0,0-2.81,2.52L458.79,857.73a2.84,2.84,0,0,0,2.82,3.15H586.85a2.83,2.83,0,0,0,2.81-3.15L576.78,743.41a2.84,2.84,0,0,0-2.82-2.52H562.8V615.67q8-.57,15.9-1.43a397.38,397.38,0,0,0,112.66-29.45l55.82,95.3c-41.07,29-89.38,48.92-147.19,58a1.88,1.88,0,0,0-1.59,2.08l9.22,78.28a1.89,1.89,0,0,0,2.14,1.65,246.25,246.25,0,0,0,51-12.39,1.89,1.89,0,0,0,1.19-2.37l-14.23-44.68a1.9,1.9,0,0,1,1.25-2.39l21.13-6.48a1.9,1.9,0,0,1,2.35,1.21L687,796.36a1.89,1.89,0,0,0,2.42,1.18h0c28.3-9.84,52.77-22.25,76.34-36.72a1.91,1.91,0,0,0,.61-2.64l-23.68-37.36a1.9,1.9,0,0,1,.54-2.58L762,705.41a1.89,1.89,0,0,1,2.65.52l24.63,37.41a1.9,1.9,0,0,0,2.7.49c9-6.59,18.23-13.5,26-20.69l15.39-14.25a1.89,1.89,0,0,0,.23-2.52L790.25,648.2a1.71,1.71,0,0,0-.18-.2L655.17,462l86.08-3.72a3.38,3.38,0,0,0,3.23-3.37v-4.79a3.38,3.38,0,0,1,3.08-3.37L848.22,440a3.37,3.37,0,0,0,3.08-3.36V405.2A3.37,3.37,0,0,0,848.15,401.83ZM544.2,229.08l24.35,17-63.7,91H500.5l-21.43-15Zm-6.44,597.8a2.83,2.83,0,0,1-2.83,2.83h-21.4a2.84,2.84,0,0,1-2.84-2.83v-52a2.84,2.84,0,0,1,2.84-2.84h21.4a2.83,2.83,0,0,1,2.83,2.84Z"/></svg>