<svg id="Layer_1" data-name="Layer 1" xmlns="http://www.w3.org/2000/svg" viewBox="0 0 1600 1600"><defs><style>.cls-1{fill:#3d4897;}</style></defs><title>medium-logo-blue-roundel copy</title><path class="cls-1" d="M1454.21,508.09,1245.37,497.7a7,7,0,0,1-6.55-7v-8.1a7,7,0,0,0-6.71-7L985.35,465a7,7,0,0,1-6.71-7V436.23a7,7,0,0,0-7-7H911.32a7,7,0,0,0-7,7v230a7,7,0,0,0,7,7h60.31a7,7,0,0,0,7-7V643a7,7,0,0,1,2.84-5.62l125.44,214.14a783.93,783.93,0,0,1-216.26,55.9q-14.58,1.62-29.31,2.71V405.64a159.42,159.42,0,1,0-156.6,3.09V907.44q-35-3.68-70.36-10.08a991.52,991.52,0,0,1-185.1-52.79l211.85-377.7a5.89,5.89,0,0,0-1.89-7.79l-22-14.53a5.89,5.89,0,0,0-8.07,1.53L525.24,594.19,423.41,417.1a5.88,5.88,0,0,0-8.07-2.15L364,444.85a5.89,5.89,0,0,0-2.13,8l118.8,204.88L168.09,1103.15,140,1140.82a3.94,3.94,0,0,0,.49,5.24l32,29.6c16.14,14.93,40.87,29.26,60.14,42.93a3.93,3.93,0,0,0,5.66-1.24l45.1-77.14A3.93,3.93,0,0,1,289,1139l39.06,26.67a4,4,0,0,1,1.24,5.14l-43.63,79.89a4,4,0,0,0,1.4,5.25c48.77,30,93.71,53.87,152.57,74.34l0,0a4,4,0,0,0,5-2.47l30.08-90.12a3.94,3.94,0,0,1,4.89-2.52l43.9,13.47a3.93,3.93,0,0,1,2.6,5l-29.58,92.84a4,4,0,0,0,2.48,4.92c32.34,11.16,62.24,19.78,106,25.76a4,4,0,0,0,4.45-3.45L628.69,1211a3.92,3.92,0,0,0-3.3-4.33c-122.07-19.11-223.76-61.64-310-123.43l113-201.44A1029,1029,0,0,0,625.33,938.6q39.85,7.3,79.42,11.28v262.67H677.89a5.9,5.9,0,0,0-5.86,5.23L645.26,1455.3a5.9,5.9,0,0,0,5.86,6.55h260.2a5.89,5.89,0,0,0,5.85-6.55L890.4,1217.78a5.89,5.89,0,0,0-5.85-5.23h-23.2V952.39q16.59-1.18,33-3a825.68,825.68,0,0,0,234.08-61.18l116,198c-85.33,60.18-185.71,101.64-305.82,120.45a3.92,3.92,0,0,0-3.3,4.33l19.15,162.63a4,4,0,0,0,4.45,3.45c43.77-6,73.67-14.6,106-25.76a4,4,0,0,0,2.48-4.92l-29.58-92.84a3.93,3.93,0,0,1,2.6-5l43.9-13.47a3.94,3.94,0,0,1,4.89,2.52l30.08,90.12a4,4,0,0,0,5,2.47l0,0C1183.16,1309.8,1234,1284,1283,1254a4,4,0,0,0,1.27-5.47l-49.19-77.63a4,4,0,0,1,1.11-5.36l39-26.67a3.93,3.93,0,0,1,5.5,1.09l51.17,77.72a3.93,3.93,0,0,0,5.61,1c18.66-13.69,37.89-28,54-43l32-29.6a3.94,3.94,0,0,0,.49-5.24L1333.92,1020a3.07,3.07,0,0,0-.38-.42L1053.26,633l178.85-7.73a7,7,0,0,0,6.71-7v-10a7,7,0,0,1,6.4-7l209.14-13.87a7,7,0,0,0,6.41-7v-65.4A7,7,0,0,0,1454.21,508.09Zm-631.5-358.9,50.59,35.42L741,373.63h-9l-44.53-31.18Zm-13.37,1242a5.89,5.89,0,0,1-5.89,5.89H759a5.89,5.89,0,0,1-5.89-5.89v-108a5.89,5.89,0,0,1,5.89-5.89h44.47a5.89,5.89,0,0,1,5.89,5.89Z"/></svg>