<svg id="Layer_1" data-name="Layer 1" xmlns="http://www.w3.org/2000/svg" viewBox="0 0 1600 1600"><defs><style>.cls-1{fill:#fff;}</style></defs><title>medium-logo-whiteoutline-roundel copy 2</title><path class="cls-1" d="M1454.21,588.65l-208.84-10.38a7,7,0,0,1-6.55-7v-8.1a7,7,0,0,0-6.71-7L985.35,545.51a7,7,0,0,1-6.71-7V516.79a7,7,0,0,0-7-7H911.32a7,7,0,0,0-7,7v230a7,7,0,0,0,7,7h60.31a7,7,0,0,0,7-7V723.52a7,7,0,0,1,2.84-5.63L1106.92,932a783.93,783.93,0,0,1-216.26,55.9q-14.58,1.62-29.31,2.71V486.21a159.43,159.43,0,1,0-156.6,3.08V988q-35-3.69-70.36-10.09a991.52,991.52,0,0,1-185.1-52.79L661.14,547.44a5.9,5.9,0,0,0-1.89-7.8l-22-14.53a5.89,5.89,0,0,0-8.07,1.53L525.24,674.75,423.41,497.66a5.89,5.89,0,0,0-8.07-2.15L364,525.41a5.89,5.89,0,0,0-2.13,8.05l118.8,204.88L168.09,1183.71,140,1221.38a3.94,3.94,0,0,0,.49,5.24l32,29.6c16.14,14.94,40.87,29.26,60.14,42.93a3.94,3.94,0,0,0,5.66-1.23l45.1-77.15a3.93,3.93,0,0,1,5.62-1.26l39.06,26.68a3.94,3.94,0,0,1,1.24,5.13l-43.63,79.89a4,4,0,0,0,1.4,5.25c48.77,30,93.71,53.87,152.57,74.34l0,0a4,4,0,0,0,5-2.47l30.08-90.12a3.94,3.94,0,0,1,4.89-2.52l43.9,13.47a3.94,3.94,0,0,1,2.6,5L496.6,1427a4,4,0,0,0,2.48,4.92c32.34,11.16,62.24,19.78,106,25.76a4,4,0,0,0,4.45-3.44l19.15-162.64a3.92,3.92,0,0,0-3.3-4.33c-122.07-19.11-223.76-61.64-310-123.43l113-201.44a1029,1029,0,0,0,196.93,56.79q39.85,7.32,79.42,11.28v262.67H677.89a5.9,5.9,0,0,0-5.86,5.23l-26.77,237.52a5.9,5.9,0,0,0,5.86,6.55h260.2a5.89,5.89,0,0,0,5.85-6.55L890.4,1298.34a5.89,5.89,0,0,0-5.85-5.23h-23.2V1033q16.59-1.18,33-3a825.68,825.68,0,0,0,234.08-61.18l116,198c-85.33,60.18-185.71,101.64-305.82,120.45a3.92,3.92,0,0,0-3.3,4.33l19.15,162.64a4,4,0,0,0,4.45,3.44c43.77-6,73.67-14.6,106-25.76a4,4,0,0,0,2.48-4.92l-29.58-92.83a3.94,3.94,0,0,1,2.6-5l43.9-13.47a3.94,3.94,0,0,1,4.89,2.52l30.08,90.12a4,4,0,0,0,5,2.47l0,0c58.79-20.44,109.64-46.22,158.6-76.29a4,4,0,0,0,1.27-5.47l-49.19-77.63a4,4,0,0,1,1.11-5.36l39-26.67a3.93,3.93,0,0,1,5.5,1.09l51.17,77.72a3.93,3.93,0,0,0,5.61,1c18.66-13.68,37.89-28,54-43l32-29.6a3.94,3.94,0,0,0,.49-5.24l-90.08-120.85a3.07,3.07,0,0,0-.38-.42L1053.26,713.58l178.85-7.73a7,7,0,0,0,6.71-7v-10a7,7,0,0,1,6.4-7L1454.36,668a7,7,0,0,0,6.41-7v-65.4A7,7,0,0,0,1454.21,588.65Zm-631.5-358.9,50.59,35.42L741,454.19h-9L687.39,423Zm-13.37,1242a5.89,5.89,0,0,1-5.89,5.89H759a5.89,5.89,0,0,1-5.89-5.89v-108a5.89,5.89,0,0,1,5.89-5.89h44.47a5.89,5.89,0,0,1,5.89,5.89Z"/></svg>