<svg id="Layer_1" data-name="Layer 1" xmlns="http://www.w3.org/2000/svg" viewBox="0 0 2400 2400"><defs><style>.cls-1{fill:#fff;}</style></defs><title>large-logo-outline-roundel copy 2</title><path class="cls-1" d="M2174.69,728,1862.6,712.46a10.48,10.48,0,0,1-9.79-10.46V689.9a10.49,10.49,0,0,0-10-10.47L1474,663.5A10.47,10.47,0,0,1,1464,653V620.59a10.48,10.48,0,0,0-10.48-10.48h-90.13a10.48,10.48,0,0,0-10.48,10.48V964.26a10.48,10.48,0,0,0,10.48,10.48h90.13A10.48,10.48,0,0,0,1464,964.26V929.52a10.49,10.49,0,0,1,10-10.47l368.76-15.92a10.49,10.49,0,0,0,10-10.47V877.78a10.48,10.48,0,0,1,9.57-10.44l312.54-20.73a10.48,10.48,0,0,0,9.57-10.44V738.43A10.48,10.48,0,0,0,2174.69,728Zm-184.86,793.49,1.15-1.33L1622.59,996.76l-2-4-.59.29-20-28.4a8.72,8.72,0,0,0-7.49-3.69l-38.17,1.56a8.72,8.72,0,0,0-7.43,12.62L1573.4,1028c-19.49,6.82-123.77,42.18-230.19,55.87a7.25,7.25,0,0,0-6.31,8l5.37,46.16a7.27,7.27,0,0,0,8.11,6.37c28.47-3.57,136.48-19.08,250.88-60.91l130.82,260.67-11.14-19.46s-204.17,91.37-347.3,114.77a7.26,7.26,0,0,0-6.08,8l5.42,50.09a7.25,7.25,0,0,0,8.88,6.29c45-10.62,261.57-66.34,367.89-124.43l116.16,231.47c-131.3,90.4-283.4,152-465.53,178.5A8.72,8.72,0,0,0,1393,1799l27.69,235a8.74,8.74,0,0,0,9.74,7.65c40.68-5,74.63-11.54,112.26-19.49l-13.1-148.36,45.66,141q55-13.14,106-30.48l-18.14-71.89,32.64,66.9q47.31-16.78,91.49-37.14l-43.68-143,73.37,128.82q48.45-24,93.65-52.3l-35.38-64.26,47.06,56.84q40.86-26.21,79.52-55.73l-77-131.25,102.56,111.23q20-16.14,39.62-33.12l45.62-39.68a8.7,8.7,0,0,0,1.54-11.4ZM967.58,1505.25a7.27,7.27,0,0,0,8.7-6.34l5.48-50.61a7.26,7.26,0,0,0-5.76-7.88c-149.73-30.88-284.73-84.18-347.66-114.52l140.39-245.33c92.12,29.75,195.44,53.57,223.79,59.92a7.26,7.26,0,0,0,8.74-6l7.29-45.9a7.24,7.24,0,0,0-5.86-8.26c-76.39-14-156.61-37.6-202.89-54.1L992.22,690a8.71,8.71,0,0,0-2.7-11.56l-32.15-21.62a8.71,8.71,0,0,0-12,2.24L803.61,861.49l-155-267.25a8.72,8.72,0,0,0-11.9-3.18l-75.5,43.59a8.73,8.73,0,0,0-3.2,11.91L737,956.62l-81.46,116.32-87.27,124.62L336.92,1527.92,218,1687.55a8.71,8.71,0,0,0,1.07,11.6l45.42,42q19.89,18.42,41.42,36l103.87-112.65-78.07,133q37.82,28.8,79.77,54.92l47.83-57.76-35.85,65.12q45.09,27.29,94.23,51.24l73.26-128.62L547.33,1925q44.37,20.18,91.42,37.41l32.61-66.82-18.17,72c2.21.79,4.42,1.59,6.64,2.36,37.17,12.92,67.64,24.4,97.3,34.4L804.86,1857l-14,158.18c32.67,9.71,72.18,17.64,116,23.76a8.75,8.75,0,0,0,9.9-7.61l27.68-235a8.71,8.71,0,0,0-7.31-9.61C755.34,1757.81,599,1693.8,471,1600.88l126.66-221.34C662.21,1411.1,808.54,1472,967.58,1505.25Zm363.24,301a8.71,8.71,0,0,0-8.66-7.74h-34.33V596.9h-5.66c79.67-40.32,134.32-122.89,134.32-218.28,0-135.06-109.49-244.54-244.54-244.54S927.4,243.56,927.4,378.62c0,95.39,54.65,178,134.32,218.28h-5.66V1798.54H1016.3a8.73,8.73,0,0,0-8.66,7.74L968,2157.81a8.72,8.72,0,0,0,8.67,9.7h385.09a8.72,8.72,0,0,0,8.66-9.7ZM1018.75,517l230.78-329.62,75.61,52.94L1094.36,569.9Zm172,1554.7L1171.94,1917l-21.24,154.62H1063l19.64-187.29h174l24.29,187.29Z"/></svg>