<svg id="Layer_1" data-name="Layer 1" xmlns="http://www.w3.org/2000/svg" viewBox="0 0 1024 1024"><defs><style>.cls-1{fill:#fff;}</style></defs><title>large-logo-white-roundel</title><path class="cls-1" d="M484.44,327.45,460.09,310.4l74.32-106.16,24.36,17ZM1024,512c0,282.77-229.23,512-512,512S0,794.77,0,512,229.23,0,512,0,1024,229.23,1024,512ZM283.67,659.5l40.79-71.29C345.25,598.38,392.38,618,443.6,628.7a2.34,2.34,0,0,0,2.81-2l1.76-16.3a2.34,2.34,0,0,0-1.85-2.54c-48.23-9.94-91.71-27.11-112-36.88l45.21-79c29.67,9.58,62.95,17.25,72.08,19.29a2.33,2.33,0,0,0,2.81-1.91l2.35-14.79a2.33,2.33,0,0,0-1.89-2.66,461.69,461.69,0,0,1-65.34-17.42l62-108.3a2.82,2.82,0,0,0-.87-3.73l-10.35-7a2.82,2.82,0,0,0-3.87.72l-45.65,65.2-49.94-86.08a2.81,2.81,0,0,0-3.83-1l-24.32,14a2.8,2.8,0,0,0-1,3.83L369.34,452l-26.23,37.47L315,529.6,240.49,636l-38.32,51.41a2.8,2.8,0,0,0,.35,3.74l14.62,13.54q6.42,5.94,13.34,11.6L263.94,680l-25.15,42.83q12.19,9.28,25.7,17.69l15.4-18.6-11.55,21q14.52,8.79,30.35,16.5L322.29,718l-14,45.93c9.53,4.33,19.37,8.35,29.45,12.05l10.5-21.52-5.85,23.19,2.14.76c12,4.16,21.78,7.86,31.34,11.08L391.2,742l-4.5,50.94a260.5,260.5,0,0,0,37.35,7.65,2.82,2.82,0,0,0,3.19-2.45l8.91-75.69a2.8,2.8,0,0,0-2.35-3.09C375.25,710,324.9,689.43,283.67,659.5ZM573.36,838.87,560.6,725.66a2.82,2.82,0,0,0-2.79-2.5H546.75v-387h-1.82a78.76,78.76,0,1,0-71,0H472.1v387H459.3a2.81,2.81,0,0,0-2.79,2.5L443.75,838.87a2.8,2.8,0,0,0,2.79,3.12h124A2.81,2.81,0,0,0,573.36,838.87ZM812.84,694.13l-40-60.2.37-.43L654.56,464.93l-.66-1.3-.19.1-6.43-9.15a2.81,2.81,0,0,0-2.41-1.19l-12.3.5a2.8,2.8,0,0,0-2.39,4.07l8.54,17c-6.28,2.2-39.86,13.59-74.14,18a2.35,2.35,0,0,0-2,2.59l1.73,14.87a2.34,2.34,0,0,0,2.61,2.05,394.18,394.18,0,0,0,80.81-19.62l42.13,84-3.59-6.27s-65.76,29.43-111.85,37a2.33,2.33,0,0,0-2,2.56l1.74,16.14a2.33,2.33,0,0,0,2.86,2c14.5-3.42,84.25-21.37,118.49-40.07l37.41,74.54c-42.29,29.12-91.27,49-149.93,57.5a2.8,2.8,0,0,0-2.39,3.1L589.53,799a2.81,2.81,0,0,0,3.13,2.47c13.11-1.62,24-3.72,36.16-6.28L624.6,747.4l14.7,45.41Q657,788.58,673.44,783l-5.84-23.16,10.51,21.55c10.16-3.6,20-7.6,29.47-12l-14.07-46,23.63,41.49q15.6-7.74,30.16-16.85l-11.39-20.69,15.15,18.3q13.17-8.43,25.62-17.95l-24.82-42.27,33,35.82q6.45-5.19,12.76-10.66l14.69-12.78A2.8,2.8,0,0,0,812.84,694.13Zm22.7-312.4a3.36,3.36,0,0,0-3.16-3.36l-100.51-5a3.38,3.38,0,0,1-3.16-3.37v-3.9a3.38,3.38,0,0,0-3.23-3.37L606.71,357.6a3.37,3.37,0,0,1-3.22-3.37V343.78a3.38,3.38,0,0,0-3.38-3.38h-29a3.37,3.37,0,0,0-3.37,3.38V454.47a3.37,3.37,0,0,0,3.37,3.37h29a3.38,3.38,0,0,0,3.38-3.37V443.28a3.36,3.36,0,0,1,3.22-3.37l118.77-5.13a3.38,3.38,0,0,0,3.23-3.38v-4.79a3.37,3.37,0,0,1,3.08-3.36l100.66-6.68a3.37,3.37,0,0,0,3.09-3.36ZM480.66,750.8l-6.32,60.33h28.24l6.85-49.8,6.05,49.8h29l-7.82-60.33Z"/></svg>